<svg width="120" height="115" viewBox="0 0 120 115" fill="none" xmlns="http://www.w3.org/2000/svg">
<g id="football">
<path id="Vector" d="M102.442 16.8784C96.8857 11.5188 90.274 7.26729 82.9894 4.3701C75.7047 1.47291 67.8919 -0.0124363 60.0034 7.84281e-05C52.1131 -0.0117363 44.2988 1.47388 37.0123 4.37099C29.7258 7.2681 23.1119 11.5192 17.5531 16.8784C-5.85102 39.2717 -5.85102 75.7226 17.5531 98.1216C23.112 103.482 29.7268 107.734 37.0145 110.631C44.3022 113.529 52.118 115.013 60.0094 115C67.8975 115.013 75.7101 113.529 82.9947 110.633C90.2793 107.736 96.8912 103.486 102.448 98.1274C125.852 75.7341 125.852 39.2832 102.442 16.8784ZM61.0838 11.5414H58.9289C59.2951 11.5357 59.6432 11.4897 60.0094 11.4897C60.3755 11.4897 60.7177 11.5357 61.0838 11.5414ZM97.4715 86.2241H84.0077L76.4565 100.678C71.1888 102.541 65.6191 103.499 60.0034 103.51C54.3773 103.5 48.7972 102.54 43.5203 100.672L35.987 86.2815H22.5712C17.6217 80.3924 14.2745 73.421 12.829 65.9908L23.9818 51.7552L16.6827 37.778C19.0117 33.0362 22.1774 28.7141 26.0407 25.0015C31.4478 19.8086 38.0753 15.93 45.3691 13.69L59.9974 23.0311L74.6317 13.6957C81.9233 15.9373 88.55 19.8135 93.96 25.0015C97.8191 28.7097 100.983 33.0257 103.312 37.7608L96.0129 51.7552L107.166 65.9908C105.727 73.3971 102.397 80.3478 97.4715 86.2241Z" fill="black"/>
<path id="Vector_2" d="M38.9883 51.7552L47.9921 74.7345H72.0025L81.0064 51.7552L59.9973 37.3931L38.9883 51.7552Z" fill="black"/>
</g>
</svg>
