<svg width="80" height="115" viewBox="0 0 80 115" fill="none" xmlns="http://www.w3.org/2000/svg">
<g id="handball">
<path id="Vector" d="M54.0215 25.0476C50.6297 29.8163 52.6648 35.9905 58.5232 38.7514C64.3817 41.5122 71.9669 39.8557 75.3587 35.087C78.7505 30.3183 76.7154 24.1441 70.8569 21.3833C64.9984 18.6224 57.4132 20.2789 54.0215 25.0476Z" fill="black"/>
<path id="Vector_2" d="M63.7034 47.1841L47.6696 39.6546C32.9925 32.7274 27.9357 17.3672 36.446 5.42034L25.7774 0.40066C15.9721 14.1546 19.0555 31.1211 31.7592 42.1142L0 86.8898L10.6686 91.9095L19.9189 78.8583L30.5875 83.878L12.087 109.98L22.7556 115L61.545 60.3357C65.0978 64.2599 67.1704 68.9411 67.5098 73.8079C67.8493 78.6748 66.441 83.5168 63.4567 87.7431L74.1253 92.7628C83.9922 78.9587 82.0189 59.7333 63.7034 47.1841ZM44.6479 14.004C49.088 16.0621 54.6998 14.8573 57.2899 11.2432C59.8183 7.629 58.3382 3.06109 53.8981 0.952825C51.7745 -0.010368 49.2706 -0.254872 46.9273 0.272134C44.5841 0.799141 42.5896 2.05535 41.3748 3.76938C40.1599 5.48341 39.8222 7.51766 40.4347 9.43266C41.0471 11.3477 42.5605 12.9897 44.6479 14.004Z" fill="black"/>
</g>
</svg>
