<svg width="115" height="115" viewBox="0 0 115 115" fill="none" xmlns="http://www.w3.org/2000/svg">
<g id="karathe">
<path id="Vector" d="M107.333 5.47619L54.9444 42.1667L47.2139 36.4714L70.2139 25.081L40.9528 0L31.9444 7.72143L49.45 22.7262L12.7778 40.8524L5.17499 64.3452L20.8917 87.619L31.9444 82.1429L18.975 62.8667L21.2111 55.7476L41.5278 65.7143L44.7222 115H57.5L60.6944 60.2381L115 13.1429L107.333 5.47619Z" fill="black"/>
<path id="Vector_2" d="M12.7778 32.8572C19.8348 32.8572 25.5556 27.9536 25.5556 21.9048C25.5556 15.8559 19.8348 10.9524 12.7778 10.9524C5.72081 10.9524 0 15.8559 0 21.9048C0 27.9536 5.72081 32.8572 12.7778 32.8572Z" fill="black"/>
</g>
</svg>
