<svg width="14" height="17" viewBox="0 0 14 17" fill="none" xmlns="http://www.w3.org/2000/svg">
<path id="Location" d="M7 8.075C6.33696 8.075 5.70107 7.85112 5.23223 7.4526C4.76339 7.05409 4.5 6.51359 4.5 5.95C4.5 5.38642 4.76339 4.84591 5.23223 4.4474C5.70107 4.04888 6.33696 3.825 7 3.825C7.66304 3.825 8.29893 4.04888 8.76777 4.4474C9.23661 4.84591 9.5 5.38642 9.5 5.95C9.5 6.22906 9.43534 6.50539 9.3097 6.7632C9.18406 7.02102 8.99991 7.25528 8.76777 7.4526C8.53562 7.64993 8.26002 7.80645 7.95671 7.91324C7.65339 8.02004 7.3283 8.075 7 8.075ZM7 0C5.14348 0 3.36301 0.626873 2.05025 1.74271C0.737498 2.85856 0 4.37196 0 5.95C0 10.4125 7 17 7 17C7 17 14 10.4125 14 5.95C14 4.37196 13.2625 2.85856 11.9497 1.74271C10.637 0.626873 8.85652 0 7 0Z" fill="white"/>
</svg>
