<svg width="25" height="25" viewBox="0 0 25 25" fill="none" xmlns="http://www.w3.org/2000/svg">
<path id="REG" d="M7.89904 0L6.17945 2.06299L7.30299 3.40554L9.0173 1.34383L7.89904 0ZM9.6872 2.15367L9.165 2.78215L15.653 10.5851L16.1752 9.95726L9.6872 2.15367ZM18.0953 3.299C17.9001 3.299 17.7049 3.30534 17.5203 3.31803C15.8376 3.43091 14.5295 4.06382 13.3901 4.99163L16.8451 9.15185C17.0297 9.6148 19.588 15.2527 20.3001 16.9713C19.7885 16.5654 13.791 12.8237 13.791 12.8237L12.984 11.8598V20.7573C14.2446 19.8314 15.6266 19.0007 17.3937 18.7787C19.3718 18.525 21.7982 19.0514 25 20.8778V5.4419C22.2729 3.98392 20.0786 3.35608 18.2904 3.30534C18.2219 3.30534 18.1586 3.29837 18.0953 3.299ZM5.92098 3.36432C4.29106 3.55394 2.34149 4.19256 0 5.4419V20.8778C3.20709 19.0514 5.63087 18.525 7.60892 18.7787C9.34961 19.1085 10.6736 19.7807 12.0187 20.7573V10.6992C9.98259 8.25765 7.95179 5.80972 5.92098 3.36432ZM8.49509 3.58946L7.97289 4.21666L14.4609 12.0183L14.9831 11.3905L8.49509 3.58946ZM16.7185 10.9212L15.268 12.6652L18.1744 14.4155L16.7185 10.9212ZM6.58034 19.9012C4.89239 19.9202 2.79038 20.5227 0 22.1842V24.8795C3.20709 23.0531 5.63087 22.5267 7.60892 22.7804C8.59004 22.9072 9.44984 23.218 10.2358 23.6238C9.98787 24.0107 9.74522 24.4673 9.50258 25H15.6847C15.3682 24.48 15.0622 24.0234 14.751 23.6302C15.5423 23.218 16.4073 22.9072 17.3937 22.7804C19.3718 22.5267 21.7982 23.0531 25 24.8795V22.1842C22.1991 20.5163 20.0891 19.9075 18.3959 19.9012H18.2324C17.9792 19.9075 17.7366 19.9266 17.4992 19.9583C15.7058 20.1866 14.3554 21.0998 12.984 22.1398C12.6833 22.0891 12.2982 22.0257 12.0187 22.0828C10.5839 21.0554 8.94873 20.1549 7.5087 19.9583C7.21331 19.9202 6.9021 19.9012 6.58034 19.9012Z" fill="white"/>
</svg>
