<svg width="100" height="115" viewBox="0 0 100 115" fill="none" xmlns="http://www.w3.org/2000/svg">
<path id="Vector" d="M41.5668 0.000495783L38.8522 8.09215C42.4576 7.43438 46.1849 7.0921 50.0054 7.0921C52.9124 7.0921 55.7682 7.29548 58.5556 7.68142L55.9456 0H41.5668V0.000495783ZM50.0049 12.1149C22.3572 12.1149 0 32.0886 0 56.7986C0 81.5081 22.3572 101.482 50.0049 101.482C77.6517 101.482 100 81.5083 100 56.7983C100 32.0881 77.652 12.1144 50.0046 12.1144L50.0049 12.1149ZM50.0049 22.4544C71.2295 22.4544 88.4311 37.8284 88.4311 56.7988C88.4311 75.7685 71.2295 91.1507 50.0046 91.1507C28.7791 91.1507 11.5692 75.7685 11.5692 56.7988C11.5692 37.8284 28.7791 22.4544 50.0046 22.4544H50.0049ZM49.9957 32.1121C34.7437 32.1121 22.3749 43.1593 22.3749 56.7909C22.3749 70.4225 34.7437 81.4696 49.9957 81.4696C65.2478 81.4696 77.6081 70.4225 77.6081 56.7909C77.6081 43.1593 65.2478 32.1121 49.9957 32.1121ZM50.0046 41.9556C59.1769 41.9556 66.6114 48.6003 66.6114 56.7986C66.6114 64.9964 59.1769 71.6413 50.0043 71.6413C40.8312 71.6413 33.3966 64.9966 33.3966 56.7983C33.3966 48.5998 40.8312 41.9551 50.004 41.9551L50.0046 41.9556ZM50.0046 49.6212C45.5663 49.6212 41.9651 52.8324 41.9651 56.7991C41.9651 60.765 45.5663 63.9839 50.0046 63.9839C54.442 63.9839 58.0347 60.7653 58.0347 56.7986C58.0347 52.8326 54.4423 49.6214 50.0043 49.6214L50.0046 49.6212ZM10.7192 91.9642L2.99213 115H16.0008L21.6287 99.5444C17.6559 97.43 13.9915 94.8839 10.7192 91.9642ZM87.6421 93.375C84.3023 96.1199 80.6008 98.491 76.6194 100.436L81.9615 115H94.9787L87.6421 93.375ZM41.8443 105.97V115H56.3005V106.187C54.2102 106.398 52.1082 106.504 50.0046 106.505C47.2322 106.505 44.5071 106.321 41.8435 105.97L41.8443 105.97Z" fill="black"/>
</svg>
