<svg width="115" height="115" viewBox="0 0 115 115" fill="none" xmlns="http://www.w3.org/2000/svg">
<g id="rugby">
<path id="Vector" d="M114.503 22.5993C114.111 16.8661 111.656 11.4687 107.593 7.40519C103.53 3.34167 98.1327 0.886816 92.3998 0.494508C85.4669 -0.0483307 78.5063 -0.14437 71.5611 0.206985L114.797 43.4391C115.144 36.4934 115.046 29.5325 114.503 22.5993ZM0.500562 92.3986C0.892849 98.1319 3.34757 103.529 7.41087 107.593C11.4742 111.656 16.8712 114.111 22.6042 114.503C28.7454 114.969 35.9044 115.194 43.4486 114.791L0.207304 71.5474C-0.195207 79.0978 0.0347987 86.2571 0.500562 92.3986Z" fill="black"/>
<path id="Vector_2" fill-rule="evenodd" clip-rule="evenodd" d="M1.27679 60.4264C3.39861 45.5154 8.53351 30.3399 19.4416 19.437C30.3439 8.52834 45.5243 3.39317 60.4288 1.27124L113.727 54.5724C111.605 69.4777 106.47 84.6589 95.5623 95.5618C84.66 106.47 69.4853 111.606 54.5751 113.728L1.27679 60.4264ZM57.1684 35.4176C57.5689 35.0168 58.0445 34.6989 58.5679 34.4819C59.0913 34.265 59.6523 34.1534 60.2189 34.1534C60.7855 34.1534 61.3465 34.265 61.8699 34.4819C62.3933 34.6989 62.8689 35.0168 63.2694 35.4176L68.3755 40.524L73.4874 35.4176C73.8822 34.9938 74.3584 34.654 74.8874 34.4183C75.4164 34.1825 75.9874 34.0558 76.5665 34.0456C77.1456 34.0353 77.7207 34.1419 78.2577 34.3588C78.7947 34.5757 79.2826 34.8986 79.6921 35.3081C80.1016 35.7176 80.4244 36.2055 80.6413 36.7425C80.8582 37.2795 80.9648 37.8547 80.9545 38.4338C80.9443 39.0129 80.8176 39.584 80.5819 40.1131C80.3462 40.6421 80.0063 41.1182 79.5826 41.5131L74.4764 46.6253L79.5826 51.7317C80.0063 52.1265 80.3462 52.6027 80.5819 53.1317C80.8176 53.6607 80.9443 54.2318 80.9545 54.8109C80.9648 55.39 80.8582 55.9652 80.6413 56.5023C80.4244 57.0393 80.1016 57.5271 79.6921 57.9367C79.2826 58.3462 78.7947 58.6691 78.2577 58.886C77.7207 59.1029 77.1456 59.2094 76.5665 59.1992C75.9874 59.189 75.4164 59.0622 74.8874 58.8265C74.3584 58.5908 73.8822 58.2509 73.4874 57.8272L68.3755 52.7208L63.6029 57.4994L68.709 62.6058C69.4708 63.4234 69.8855 64.5048 69.8658 65.6221C69.8461 66.7394 69.3935 67.8055 68.6034 68.5956C67.8132 69.3858 66.7472 69.8385 65.6299 69.8582C64.5127 69.8779 63.4314 69.4632 62.6138 68.7013L57.5019 63.6064L52.7293 68.3793L57.8355 73.4915C58.2472 73.8895 58.5755 74.3656 58.8013 74.8919C59.027 75.4182 59.1457 75.9842 59.1504 76.5568C59.1551 77.1295 59.0457 77.6973 58.8287 78.2273C58.6116 78.7572 58.2911 79.2386 57.886 79.6433C57.4809 80.0481 56.9992 80.3681 56.4691 80.5847C55.939 80.8013 55.3711 80.9102 54.7985 80.9049C54.2258 80.8997 53.66 80.7804 53.1339 80.5542C52.6079 80.3279 52.1322 79.9991 51.7345 79.587L46.6284 74.4806L41.5222 79.587C40.7047 80.3488 39.6234 80.7636 38.5061 80.7438C37.3889 80.7241 36.3229 80.2715 35.5327 79.4813C34.7426 78.6911 34.29 77.6251 34.2703 76.5077C34.2505 75.3904 34.6653 74.3091 35.4271 73.4915L40.5275 68.3793L35.4213 63.2729C34.9976 62.878 34.6577 62.4019 34.422 61.8729C34.1863 61.3438 34.0596 60.7727 34.0494 60.1936C34.0391 59.6145 34.1457 59.0393 34.3626 58.5023C34.5795 57.9653 34.9023 57.4774 35.3118 57.0679C35.7213 56.6584 36.2092 56.3355 36.7462 56.1186C37.2832 55.9017 37.8583 55.7951 38.4374 55.8054C39.0165 55.8156 39.5875 55.9423 40.1165 56.1781C40.6455 56.4138 41.1217 56.7536 41.5165 57.1774L46.6284 62.2838L51.401 57.5109L46.2949 52.3987C45.5097 51.5849 45.0755 50.4953 45.0858 49.3645C45.0962 48.2337 45.5503 47.1522 46.3502 46.3529C47.1502 45.5536 48.2321 45.1006 49.3629 45.0913C50.4936 45.082 51.5828 45.5172 52.3958 46.3032L57.5019 51.4039L62.2746 46.631L57.1742 41.5246C56.3666 40.7159 55.9129 39.6197 55.9129 38.4768C55.9129 37.3339 56.3666 36.2377 57.1742 35.4291" fill="black"/>
</g>
</svg>
