<svg width="161" height="155" viewBox="0 0 161 155" fill="none" xmlns="http://www.w3.org/2000/svg">
<g id="shuttlecock">
<path id="Vector" d="M132.828 49.5499C127.673 43.9865 119.145 43.2789 113.734 47.9658L69.1858 86.5527L77.4658 95.4899L132.364 68.0745C137.775 63.3877 137.982 55.1133 132.828 49.5499Z" stroke="black" stroke-width="4" stroke-miterlimit="2" stroke-linecap="round" stroke-linejoin="round"/>
<path id="Vector_2" d="M77.4657 95.4899L85.7457 104.427L146.109 89.6757C154.079 87.243 157.589 77.7989 152.469 70.877C151.325 69.3277 149.87 68.0125 148.202 67.0181C146.533 66.0236 144.688 65.3725 142.788 65.1077C140.889 64.843 138.977 64.9704 137.18 65.4818C135.384 65.9932 133.742 66.8769 132.364 68.0746M114.198 29.4411C119.352 35.0046 119.145 43.2789 113.734 47.9658L69.1857 86.5527L60.9057 77.6155L95.1037 27.857C100.515 23.1702 109.043 23.8777 114.198 29.4411Z" stroke="black" stroke-width="4" stroke-miterlimit="2" stroke-linecap="round" stroke-linejoin="round"/>
<path id="Vector_3" d="M60.9058 77.6158L52.6258 68.6785L74.4045 12.2796C77.7785 4.88671 87.8715 2.54769 94.4261 8.22728C95.8933 9.49669 97.0859 11.0386 97.9254 12.7512C98.7648 14.4639 99.2319 16.3084 99.2959 18.1633C99.36 20.0181 99.0195 21.8411 98.2969 23.5121C97.5743 25.183 96.486 26.664 95.1038 27.8573M72.5831 115.587C71.9488 116.298 71.2731 116.963 70.5343 117.603C60.9293 125.923 45.7391 124.663 36.5897 114.787C27.4403 104.912 27.8093 90.1742 37.4143 81.8545C38.1531 81.2146 38.9116 80.6381 39.7115 80.1063L72.5831 115.587Z" stroke="black" stroke-width="4" stroke-miterlimit="2" stroke-linecap="round" stroke-linejoin="round"/>
</g>
</svg>
