<svg width="18" height="16" viewBox="0 0 18 16" fill="none" xmlns="http://www.w3.org/2000/svg">
<path id="Telephone" d="M3.62 6.92444C5.06 9.44 7.38 11.5022 10.21 12.7822L12.41 10.8267C12.69 10.5778 13.08 10.5067 13.43 10.6044C14.55 10.9333 15.75 11.1111 17 11.1111C17.2652 11.1111 17.5196 11.2048 17.7071 11.3715C17.8946 11.5382 18 11.7643 18 12V15.1111C18 15.3469 17.8946 15.573 17.7071 15.7397C17.5196 15.9064 17.2652 16 17 16C12.4913 16 8.1673 14.4079 4.97918 11.5741C1.79107 8.74017 0 4.8966 0 0.888889C0 0.653141 0.105357 0.427049 0.292893 0.260349C0.48043 0.0936505 0.734784 0 1 0H4.5C4.76522 0 5.01957 0.0936505 5.20711 0.260349C5.39464 0.427049 5.5 0.653141 5.5 0.888889C5.5 2 5.7 3.06667 6.07 4.06222C6.18 4.37333 6.1 4.72 5.82 4.96889L3.62 6.92444Z" fill="white"/>
</svg>
