<svg width="14" height="13" viewBox="0 0 14 13" fill="none" xmlns="http://www.w3.org/2000/svg">
<path id="Vector" d="M11.9966 0.252222C11.767 0.124475 11.5145 0.0432355 11.2535 0.0131501C10.9925 -0.0169354 10.7281 0.00472298 10.4755 0.076887C10.2229 0.149051 9.98697 0.270305 9.78125 0.433715C9.57553 0.597124 9.40403 0.799484 9.27658 1.02922L5.56358 7.71122L3.43858 5.58622C3.25408 5.3952 3.03339 5.24284 2.78939 5.13802C2.54538 5.0332 2.28294 4.97803 2.01738 4.97572C1.75182 4.97341 1.48846 5.02402 1.24267 5.12458C0.996876 5.22514 0.773572 5.37365 0.585787 5.56143C0.398001 5.74922 0.249495 5.97252 0.148933 6.21831C0.0483713 6.46411 -0.00223212 6.72747 7.55134e-05 6.99302C0.00238315 7.25858 0.0575557 7.52102 0.162374 7.76503C0.267192 8.00904 0.419556 8.22973 0.610576 8.41422L4.61058 12.4142C4.98858 12.7932 5.49858 13.0012 6.02458 13.0012L6.30158 12.9812C6.60813 12.9383 6.90054 12.8249 7.1558 12.6498C7.41105 12.4747 7.62219 12.2428 7.77258 11.9722L12.7726 2.97222C12.9002 2.74267 12.9814 2.49023 13.0115 2.2293C13.0416 1.96838 13.02 1.70408 12.9479 1.4515C12.8759 1.19892 12.7548 0.963011 12.5915 0.757238C12.4283 0.551465 12.2261 0.37986 11.9966 0.252222Z" fill="#F8F8F8"/>
</svg>
