<svg width="115" height="115" viewBox="0 0 115 115" fill="none" xmlns="http://www.w3.org/2000/svg">
<path id="Vector" d="M0 115V103.194C0 101.421 0.456819 99.9398 1.37046 98.7492C2.28409 97.564 3.42199 96.9714 4.78414 96.9714H10.0604V115H0ZM16.2897 115V96.9795H42.4032L48.6574 78.7327L52.8747 90.539L45.8978 110.555C45.2998 112.145 44.5814 113.284 43.7425 113.974C42.9036 114.658 41.7532 115 40.2914 115H16.2897ZM104.933 115V96.9795H110.21C111.572 96.9795 112.712 97.5721 113.63 98.7573C114.543 99.9425 115 101.421 115 103.194V115H104.933ZM98.704 115H74.7023C73.3194 115 72.1878 114.658 71.3074 113.974C70.4311 113.284 69.694 112.145 69.0959 110.555L30.9287 0.00808422H39.3383L57.4969 52.8979L75.6554 0H84.065L61.7141 64.987L72.5906 96.9714H98.704V115Z" fill="black"/>
</svg>
