<svg width="115" height="115" viewBox="0 0 115 115" fill="none" xmlns="http://www.w3.org/2000/svg">
<path id="Vector" d="M24.6429 115C22.3155 115 20.3659 114.387 18.7943 113.16C17.2226 111.933 16.434 110.417 16.4286 108.611V89.4444H98.5714V108.611C98.5714 110.421 97.7828 111.94 96.2057 113.166C94.6285 114.393 92.679 115.004 90.3571 115H24.6429ZM115 31.9444V51.1111C115 51.4305 114.863 51.8565 114.589 52.3889L108.429 76.6666C108.018 78.5833 106.887 80.1273 105.036 81.2986C103.185 82.4699 101.03 83.0555 98.5714 83.0555H16.4286C13.9643 83.0555 11.8067 82.4699 9.95571 81.2986C8.10476 80.1273 6.97667 78.5833 6.57143 76.6666L0.410716 52.3889C0.136906 51.8565 0 51.4305 0 51.1111V12.7778C0 9.26389 1.61 6.25685 4.83 3.75667C8.05 1.25648 11.9162 0.00425926 16.4286 0H82.1428C86.6607 0 90.5296 1.25222 93.7496 3.75667C96.9696 6.26111 98.5769 9.26815 98.5714 12.7778V31.9444C98.5714 30.1343 99.36 28.618 100.937 27.3955C102.514 26.1731 104.464 25.5598 106.786 25.5555C109.113 25.5555 111.065 26.1689 112.642 27.3955C114.22 28.6222 115.005 30.1385 115 31.9444ZM36.9643 44.7222H61.6071C65.0297 44.7222 67.9403 43.7916 70.3389 41.9303C72.7375 40.069 73.934 37.8052 73.9286 35.1389C73.9286 32.4768 72.732 30.2152 70.3389 28.3539C67.9458 26.4926 65.0352 25.5598 61.6071 25.5555H36.9643C33.5417 25.5555 30.6338 26.4883 28.2407 28.3539C25.8476 30.2194 24.6483 32.4811 24.6429 35.1389C24.6429 37.8009 25.8421 40.0647 28.2407 41.9303C30.6393 43.7958 33.5471 44.7265 36.9643 44.7222Z" fill="black"/>
</svg>
