<svg width="11" height="11" viewBox="0 0 11 11" fill="none" xmlns="http://www.w3.org/2000/svg">
<path id="Vector" d="M10.3125 1.02907L7.56009 1.02908V0.343831C7.56009 0.153864 7.40627 0 7.21634 0C7.02642 0 6.87259 0.153864 6.87259 0.343831V1.02891H4.12259V0.343831C4.12259 0.153864 3.96877 0 3.77884 0C3.58892 0 3.43509 0.153864 3.43509 0.343831V1.02891H0.6875C0.307828 1.02891 0 1.33681 0 1.71657V10.3123C0 10.6921 0.307828 11 0.6875 11H10.3125C10.6922 11 11 10.6921 11 10.3123V1.71657C11 1.33697 10.6922 1.02907 10.3125 1.02907ZM10.3125 10.3123H0.6875V1.71657H3.43509V2.06298C3.43509 2.25294 3.58892 2.40681 3.77884 2.40681C3.96877 2.40681 4.12259 2.25294 4.12259 2.06298V1.71675H6.87259V2.06316C6.87259 2.25312 7.02642 2.40699 7.21634 2.40699C7.40627 2.40699 7.56009 2.25312 7.56009 2.06316V1.71675H10.3125V10.3123ZM7.90625 5.49887H8.59375C8.7835 5.49887 8.9375 5.34484 8.9375 5.15504V4.46738C8.9375 4.27759 8.7835 4.12355 8.59375 4.12355H7.90625C7.7165 4.12355 7.5625 4.27759 7.5625 4.46738V5.15504C7.5625 5.34484 7.7165 5.49887 7.90625 5.49887ZM7.90625 8.24934H8.59375C8.7835 8.24934 8.9375 8.09548 8.9375 7.90551V7.21785C8.9375 7.02806 8.7835 6.87402 8.59375 6.87402H7.90625C7.7165 6.87402 7.5625 7.02806 7.5625 7.21785V7.90551C7.5625 8.09565 7.7165 8.24934 7.90625 8.24934ZM5.84375 6.87402H5.15625C4.9665 6.87402 4.8125 7.02806 4.8125 7.21785V7.90551C4.8125 8.09548 4.9665 8.24934 5.15625 8.24934H5.84375C6.0335 8.24934 6.1875 8.09548 6.1875 7.90551V7.21785C6.1875 7.02823 6.0335 6.87402 5.84375 6.87402ZM5.84375 4.12355H5.15625C4.9665 4.12355 4.8125 4.27759 4.8125 4.46738V5.15504C4.8125 5.34484 4.9665 5.49887 5.15625 5.49887H5.84375C6.0335 5.49887 6.1875 5.34484 6.1875 5.15504V4.46738C6.1875 4.27741 6.0335 4.12355 5.84375 4.12355ZM3.09375 4.12355H2.40625C2.2165 4.12355 2.0625 4.27759 2.0625 4.46738V5.15504C2.0625 5.34484 2.2165 5.49887 2.40625 5.49887H3.09375C3.2835 5.49887 3.4375 5.34484 3.4375 5.15504V4.46738C3.4375 4.27741 3.2835 4.12355 3.09375 4.12355ZM3.09375 6.87402H2.40625C2.2165 6.87402 2.0625 7.02806 2.0625 7.21785V7.90551C2.0625 8.09548 2.2165 8.24934 2.40625 8.24934H3.09375C3.2835 8.24934 3.4375 8.09548 3.4375 7.90551V7.21785C3.4375 7.02823 3.2835 6.87402 3.09375 6.87402Z" fill="white"/>
</svg>
