<svg width="115" height="115" viewBox="0 0 115 115" fill="none" xmlns="http://www.w3.org/2000/svg">
<path id="Vector" d="M8.19375 99.366L0 92.0702L23.575 70.7038C26.5458 68.0113 28.5833 64.6465 29.6873 60.6095C30.7913 56.5724 31.3413 50.3831 31.3375 42.0415C31.3375 37.0039 32.5833 32.0532 35.075 27.1893C37.5667 22.3254 41.1125 17.8089 45.7125 13.6399C54.4333 5.73603 64.0646 1.26298 74.6063 0.220715C85.1479 -0.821549 93.8208 1.82754 100.625 8.16798C107.525 14.4216 110.4 22.3254 109.25 31.8795C108.1 41.4336 103.213 50.1191 94.5875 57.9361C89.9875 62.1051 85.0042 65.3188 79.6375 67.577C74.2708 69.8352 68.8083 70.9644 63.25 70.9644C53.9542 70.9644 47.15 71.4421 42.8375 72.3975C38.525 73.3529 34.8354 75.2203 31.7688 77.9996L8.19375 99.366ZM47.725 55.8515C52.2292 59.8469 58.3146 61.3234 65.9813 60.2812C73.6479 59.2389 80.5 55.9818 86.5375 50.5099C92.6708 44.9512 96.3374 38.7185 97.5372 31.8117C98.7371 24.905 97.083 19.4991 92.575 15.5941C87.975 11.425 81.9624 9.86165 74.5373 10.9039C67.1121 11.9462 60.283 15.2467 54.05 20.8054C48.0125 26.2773 44.3478 32.4666 43.056 39.3733C41.7642 46.2801 43.3205 51.7728 47.725 55.8515ZM92 115C85.675 115 80.2604 112.959 75.7562 108.877C71.2521 104.795 69 99.8872 69 94.1547C69 88.4223 71.2521 83.515 75.7562 79.4328C80.2604 75.3506 85.675 73.3095 92 73.3095C98.325 73.3095 103.74 75.3506 108.244 79.4328C112.748 83.515 115 88.4223 115 94.1547C115 99.8872 112.748 104.795 108.244 108.877C103.74 112.959 98.325 115 92 115Z" fill="black"/>
</svg>
