<svg width="115" height="115" viewBox="0 0 115 115" fill="none" xmlns="http://www.w3.org/2000/svg">
<path id="Vector" d="M1.955 72.615C5.405 71.3506 8.97 70.7184 12.765 70.7184C20.47 70.7184 27.1975 73.1322 32.9475 77.9599L14.8925 96.0059C8.90242 89.2611 4.48379 81.2723 1.955 72.615ZM77.97 44.8563C89.2975 53.3046 101.545 55.3736 114.655 51.0632C114.827 52.2701 115 54.454 115 57.5C115 63.4196 113.563 70.0288 110.86 77.3277C108.158 84.5691 104.822 90.4312 100.912 94.8565L64.515 58.592L77.97 44.8563ZM38.9275 84.1668C45.0225 92.9599 46.2875 102.558 42.665 113.017C34.5 110.661 27.1975 106.983 21.1025 101.925L38.9275 84.1668ZM58.5925 64.5115L94.875 100.891C82.3975 111.811 67.735 116.408 51.06 114.627C52.2675 110.834 52.9 106.696 52.9 102.213C52.9 98.6496 52.095 94.4542 50.485 89.684C48.875 84.9139 46.9775 81.0058 44.85 77.9599L58.5925 64.5115ZM39.1575 71.8679C33.9175 67.1841 27.4945 64.0239 20.585 62.7299C13.57 61.4081 6.8425 61.8104 0.345 63.9943C0.1725 62.7299 0 60.546 0 57.5C0 51.5804 1.4375 44.9712 4.14 37.6723C6.8425 30.4309 10.1775 24.5688 14.0875 20.1435L52.3825 58.592L39.1575 71.8679ZM77.97 32.9597C70.265 23.4769 68.4825 13.132 72.6225 1.98253C76.1875 2.90208 80.27 4.62622 84.87 7.26991C89.4125 9.85613 93.15 12.4423 96.025 14.9136L77.97 32.9597ZM113.045 42.4425C109.595 43.6494 106.03 44.2816 102.235 44.2816C95.9675 44.2816 89.93 42.4425 84.18 38.6493L101.947 21.1205C107.007 27.4424 110.688 34.5114 113.045 42.4425ZM58.5925 52.385L20.125 14.109C32.6025 3.18944 47.265 -1.40828 63.9975 0.373333C62.7325 4.16645 62.1 8.3044 62.1 12.7872C62.1 16.9251 63.02 21.5803 64.9175 26.8102C66.815 31.9827 69 36.1206 71.875 39.1666L58.5925 52.385Z" fill="black"/>
</svg>
