<svg width="186" height="170" viewBox="0 0 186 170" fill="none" xmlns="http://www.w3.org/2000/svg">
<g id="Vector">
<path d="M0 10C0 4.47715 4.47715 0 10 0H175.978C181.501 0 185.978 4.47715 185.978 10V160C185.978 165.523 181.501 170 175.978 170H10C4.47715 170 0 165.523 0 160V10Z" fill="#D9D9D9"/>
<path d="M65.7539 152.64C65.9272 153.027 65.9339 153.407 65.7739 153.78C65.6139 154.14 65.3605 154.473 65.0139 154.78C64.6672 155.087 64.2672 155.353 63.8139 155.58C63.3739 155.807 62.9539 155.967 62.5539 156.06C62.1139 156.153 61.6472 156.193 61.1539 156.18C60.6739 156.18 60.1872 156.12 59.6939 156C59.2139 155.893 58.7405 155.733 58.2739 155.52C57.8205 155.293 57.4005 155.02 57.0139 154.7C56.5472 154.313 56.1805 153.853 55.9139 153.32C55.6605 152.773 55.4739 152.193 55.3539 151.58C55.2339 150.967 55.1672 150.353 55.1539 149.74C55.1539 149.113 55.1739 148.527 55.2139 147.98C55.2539 147.487 55.3539 146.973 55.5139 146.44C55.6739 145.907 55.8939 145.387 56.1739 144.88C56.4672 144.36 56.8139 143.88 57.2139 143.44C57.6272 143 58.1072 142.627 58.6539 142.32C59.0672 142.08 59.5272 141.92 60.0339 141.84C60.5539 141.747 61.0739 141.727 61.5939 141.78C62.1272 141.82 62.6272 141.933 63.0939 142.12C63.5739 142.293 63.9805 142.533 64.3139 142.84C64.5272 143.027 64.7472 143.287 64.9739 143.62C65.2139 143.953 65.3872 144.293 65.4939 144.64C65.6005 144.987 65.6005 145.313 65.4939 145.62C65.4006 145.913 65.1339 146.113 64.6939 146.22C64.5072 146.273 64.3405 146.287 64.1939 146.26C64.0472 146.22 63.9139 146.16 63.7939 146.08C63.6739 145.987 63.5605 145.88 63.4539 145.76C63.3472 145.64 63.2472 145.52 63.1539 145.4C62.8339 145.013 62.4605 144.753 62.0339 144.62C61.6072 144.473 61.1805 144.44 60.7539 144.52C60.3405 144.587 59.9472 144.76 59.5739 145.04C59.2139 145.307 58.9339 145.653 58.7339 146.08C58.5205 146.533 58.3472 147.033 58.2139 147.58C58.0939 148.113 58.0272 148.66 58.0139 149.22C58.0005 149.767 58.0472 150.3 58.1539 150.82C58.2739 151.34 58.4739 151.8 58.7539 152.2C58.9672 152.52 59.2272 152.78 59.5339 152.98C59.8539 153.18 60.1939 153.32 60.5539 153.4C60.9139 153.48 61.2739 153.493 61.6339 153.44C62.0072 153.387 62.3672 153.267 62.7139 153.08C62.8205 153.027 62.9339 152.953 63.0539 152.86C63.1872 152.753 63.3205 152.647 63.4539 152.54C63.5872 152.433 63.7205 152.333 63.8539 152.24C64.0005 152.147 64.1539 152.08 64.3139 152.04C64.5539 151.96 64.8139 151.967 65.0939 152.06C65.3872 152.153 65.6072 152.347 65.7539 152.64Z" fill="black"/>
<path d="M77.8172 155.12C77.8305 155.253 77.8172 155.38 77.7772 155.5C77.7505 155.58 77.7105 155.647 77.6572 155.7C77.6172 155.753 77.5638 155.807 77.4972 155.86C77.3772 155.94 77.2305 156.013 77.0572 156.08C76.9505 156.107 76.8438 156.127 76.7372 156.14C76.6438 156.167 76.5438 156.167 76.4372 156.14C76.2238 156.127 76.0372 156.047 75.8772 155.9C75.6505 155.713 75.4638 155.507 75.3172 155.28C75.2505 155.173 75.1772 155.053 75.0972 154.92C75.0172 154.787 74.9438 154.647 74.8772 154.5L72.6572 150.28C72.5505 150.28 72.4438 150.287 72.3372 150.3C72.2305 150.3 72.1238 150.307 72.0172 150.32C71.7372 150.347 71.4705 150.353 71.2172 150.34C70.9772 150.327 70.7238 150.327 70.4572 150.34H70.0772V153.96C70.0772 154.067 70.0705 154.167 70.0572 154.26C70.0572 154.353 70.0572 154.453 70.0572 154.56C70.0572 154.627 70.0505 154.713 70.0372 154.82C70.0372 154.927 70.0305 155.027 70.0172 155.12C69.9905 155.267 69.9305 155.42 69.8372 155.58C69.7438 155.727 69.6172 155.853 69.4572 155.96C69.1772 156.133 68.8372 156.18 68.4372 156.1C68.2638 156.06 68.0972 155.993 67.9372 155.9C67.8838 155.86 67.8372 155.813 67.7972 155.76C67.7572 155.693 67.7238 155.627 67.6972 155.56C67.6705 155.493 67.6438 155.427 67.6172 155.36C67.6038 155.28 67.5838 155.207 67.5572 155.14C67.5172 155.007 67.4972 154.88 67.4972 154.76V143.4C67.4972 143.32 67.4972 143.24 67.4972 143.16C67.5105 143.067 67.5238 142.987 67.5372 142.92C67.5505 142.773 67.5972 142.627 67.6772 142.48C67.7172 142.32 67.7838 142.207 67.8772 142.14C67.9572 142.06 68.0772 141.993 68.2372 141.94C68.4105 141.873 68.6572 141.847 68.9772 141.86C69.5772 141.873 70.1705 141.88 70.7572 141.88C71.3438 141.88 71.9305 141.893 72.5172 141.92C72.9038 141.947 73.3105 141.993 73.7372 142.06C74.1772 142.113 74.5838 142.213 74.9572 142.36C75.1972 142.453 75.4172 142.547 75.6172 142.64C75.8705 142.787 76.0705 142.927 76.2172 143.06C76.6838 143.487 77.0372 144 77.2772 144.6C77.5172 145.2 77.6372 145.807 77.6372 146.42C77.6372 147.14 77.4638 147.8 77.1172 148.4C76.7838 149 76.2438 149.447 75.4972 149.74C75.4705 149.767 75.4305 149.787 75.3772 149.8C75.3372 149.8 75.3038 149.807 75.2772 149.82L77.1172 153.52L77.2972 153.84C77.3238 153.893 77.3572 153.953 77.3972 154.02C77.4372 154.087 77.4705 154.153 77.4972 154.22C77.5372 154.287 77.5705 154.36 77.5972 154.44C77.6372 154.52 77.6772 154.593 77.7172 154.66C77.7572 154.847 77.7905 155 77.8172 155.12ZM72.8172 148C73.0572 148 73.2838 147.96 73.4972 147.88C73.7238 147.787 73.9238 147.667 74.0972 147.52C74.2838 147.373 74.4372 147.207 74.5572 147.02C74.6772 146.82 74.7438 146.607 74.7572 146.38C74.8105 145.713 74.6372 145.22 74.2372 144.9C73.8372 144.567 73.3105 144.387 72.6572 144.36C72.2705 144.333 71.8438 144.32 71.3772 144.32C70.9238 144.32 70.4905 144.32 70.0772 144.32C70.0905 144.867 70.0905 145.427 70.0772 146C70.0772 146.56 70.0772 147.227 70.0772 148H72.8172Z" fill="black"/>
<path d="M80.0508 153.88L80.0708 152.3L80.0908 149.36C80.1041 148.933 80.1108 148.493 80.1108 148.04C80.1108 147.587 80.1108 147.12 80.1108 146.64C80.1108 146.16 80.1108 145.733 80.1108 145.36C80.1108 144.987 80.1241 144.567 80.1507 144.1V144.02C80.1641 143.887 80.1708 143.753 80.1708 143.62C80.1841 143.473 80.1908 143.327 80.1908 143.18C80.2041 142.94 80.2774 142.68 80.4108 142.4C80.5041 142.213 80.6441 142.053 80.8307 141.92C81.0441 141.813 81.2508 141.76 81.4508 141.76C81.5574 141.76 81.6507 141.767 81.7308 141.78C81.8241 141.78 81.9108 141.787 81.9908 141.8C82.1641 141.827 82.3174 141.907 82.4508 142.04C82.5308 142.107 82.6041 142.213 82.6708 142.36C82.6974 142.44 82.7174 142.52 82.7308 142.6C82.7574 142.667 82.7774 142.74 82.7908 142.82C82.8041 142.913 82.8108 143 82.8108 143.08C82.8241 143.16 82.8307 143.24 82.8307 143.32C82.8307 143.413 82.8241 143.5 82.8108 143.58C82.8108 143.647 82.8108 143.72 82.8108 143.8V144.14L82.6908 154.52V154.72C82.6908 154.76 82.6841 154.813 82.6708 154.88C82.6708 154.933 82.6641 155 82.6507 155.08C82.6241 155.147 82.5974 155.22 82.5708 155.3C82.5574 155.367 82.5374 155.44 82.5107 155.52C82.4707 155.587 82.4241 155.653 82.3708 155.72C82.3307 155.773 82.2774 155.827 82.2108 155.88C82.1041 155.987 81.9307 156.06 81.6908 156.1C81.3307 156.18 80.9908 156.147 80.6708 156C80.5107 155.893 80.3974 155.76 80.3307 155.6C80.2907 155.56 80.2708 155.52 80.2708 155.48C80.2574 155.453 80.2441 155.433 80.2308 155.42C80.2174 155.407 80.2041 155.387 80.1908 155.36C80.1641 155.293 80.1441 155.227 80.1308 155.16C80.1174 155.08 80.1108 155 80.1108 154.92C80.0974 154.853 80.0841 154.787 80.0708 154.72C80.0708 154.653 80.0641 154.587 80.0508 154.52C80.0374 154.413 80.0374 154.3 80.0508 154.18V153.88Z" fill="black"/>
<path d="M95.6562 152.64C95.8296 153.027 95.8362 153.407 95.6762 153.78C95.5162 154.14 95.2629 154.473 94.9162 154.78C94.5696 155.087 94.1696 155.353 93.7162 155.58C93.2762 155.807 92.8562 155.967 92.4562 156.06C92.0162 156.153 91.5496 156.193 91.0562 156.18C90.5762 156.18 90.0896 156.12 89.5962 156C89.1162 155.893 88.6429 155.733 88.1762 155.52C87.7229 155.293 87.3029 155.02 86.9162 154.7C86.4496 154.313 86.0829 153.853 85.8162 153.32C85.5629 152.773 85.3762 152.193 85.2562 151.58C85.1362 150.967 85.0696 150.353 85.0562 149.74C85.0562 149.113 85.0762 148.527 85.1162 147.98C85.1562 147.487 85.2562 146.973 85.4162 146.44C85.5762 145.907 85.7962 145.387 86.0762 144.88C86.3696 144.36 86.7162 143.88 87.1162 143.44C87.5295 143 88.0096 142.627 88.5562 142.32C88.9696 142.08 89.4296 141.92 89.9362 141.84C90.4562 141.747 90.9762 141.727 91.4962 141.78C92.0296 141.82 92.5296 141.933 92.9962 142.12C93.4762 142.293 93.8829 142.533 94.2162 142.84C94.4296 143.027 94.6496 143.287 94.8762 143.62C95.1162 143.953 95.2896 144.293 95.3962 144.64C95.5029 144.987 95.5029 145.313 95.3962 145.62C95.3029 145.913 95.0362 146.113 94.5962 146.22C94.4096 146.273 94.2429 146.287 94.0962 146.26C93.9496 146.22 93.8162 146.16 93.6962 146.08C93.5762 145.987 93.4629 145.88 93.3562 145.76C93.2496 145.64 93.1496 145.52 93.0562 145.4C92.7362 145.013 92.3629 144.753 91.9362 144.62C91.5096 144.473 91.0829 144.44 90.6562 144.52C90.2429 144.587 89.8496 144.76 89.4762 145.04C89.1162 145.307 88.8362 145.653 88.6362 146.08C88.4229 146.533 88.2495 147.033 88.1162 147.58C87.9962 148.113 87.9296 148.66 87.9162 149.22C87.9029 149.767 87.9496 150.3 88.0562 150.82C88.1762 151.34 88.3762 151.8 88.6562 152.2C88.8696 152.52 89.1296 152.78 89.4362 152.98C89.7562 153.18 90.0962 153.32 90.4562 153.4C90.8162 153.48 91.1762 153.493 91.5362 153.44C91.9096 153.387 92.2696 153.267 92.6162 153.08C92.7229 153.027 92.8362 152.953 92.9562 152.86C93.0896 152.753 93.2229 152.647 93.3562 152.54C93.4896 152.433 93.6229 152.333 93.7562 152.24C93.9029 152.147 94.0562 152.08 94.2162 152.04C94.4562 151.96 94.7162 151.967 94.9962 152.06C95.2896 152.153 95.5096 152.347 95.6562 152.64Z" fill="black"/>
<path d="M107.08 154.56C107.186 154.76 107.193 154.96 107.1 155.16C107.033 155.373 106.92 155.533 106.76 155.64C106.68 155.707 106.606 155.767 106.54 155.82C106.473 155.86 106.4 155.893 106.32 155.92C106.173 156 105.999 156.027 105.799 156C105.719 156 105.646 155.987 105.58 155.96C105.513 155.933 105.446 155.9 105.38 155.86C105.313 155.82 105.24 155.78 105.16 155.74C105.093 155.687 105.026 155.633 104.96 155.58C104.88 155.513 104.806 155.453 104.74 155.4C104.673 155.347 104.613 155.287 104.56 155.22C104.493 155.153 104.433 155.087 104.38 155.02C104.326 154.953 104.273 154.893 104.22 154.84L103.979 154.58L100.14 150.56L100.2 154.58V154.76C100.2 154.813 100.193 154.873 100.18 154.94C100.166 154.993 100.153 155.053 100.14 155.12C100.1 155.293 100.053 155.447 99.9995 155.58C99.9728 155.66 99.9328 155.727 99.8795 155.78C99.8395 155.833 99.7928 155.887 99.7395 155.94C99.5928 156.073 99.4195 156.147 99.2195 156.16C99.0195 156.227 98.8328 156.247 98.6595 156.22C98.4995 156.207 98.3328 156.16 98.1595 156.08C98.0262 156 97.9062 155.867 97.7995 155.68C97.7728 155.627 97.7528 155.593 97.7395 155.58C97.7395 155.567 97.7262 155.52 97.6995 155.44C97.6195 155.307 97.5795 155.173 97.5795 155.04C97.5662 154.96 97.5528 154.887 97.5395 154.82C97.5395 154.753 97.5328 154.68 97.5195 154.6C97.5062 154.547 97.4995 154.493 97.4995 154.44C97.4995 154.387 97.4995 154.333 97.4995 154.28C97.5128 154.213 97.5195 154.16 97.5195 154.12C97.5195 154.067 97.5195 154.007 97.5195 153.94L97.4995 152.36L97.4795 149.42C97.4795 148.567 97.4595 147.647 97.4195 146.66C97.4062 146.18 97.3995 145.753 97.3995 145.38C97.3995 145.007 97.4062 144.587 97.4195 144.12V144.04C97.4462 143.893 97.4595 143.753 97.4595 143.62C97.4595 143.473 97.4662 143.333 97.4795 143.2C97.4795 142.933 97.5395 142.667 97.6595 142.4C97.7395 142.2 97.8795 142.04 98.0795 141.92C98.1862 141.853 98.2862 141.813 98.3795 141.8C98.4862 141.773 98.5995 141.747 98.7195 141.72C98.8128 141.72 98.8995 141.727 98.9795 141.74C99.0728 141.753 99.1595 141.767 99.2395 141.78C99.4128 141.807 99.5728 141.88 99.7195 142C99.7595 142.04 99.7928 142.087 99.8195 142.14C99.8595 142.193 99.8928 142.26 99.9195 142.34C99.9862 142.447 100.033 142.6 100.06 142.8C100.073 142.88 100.08 142.96 100.08 143.04C100.093 143.12 100.1 143.207 100.1 143.3V144.12L100.119 146.56C100.333 146.373 100.54 146.18 100.74 145.98C100.953 145.78 101.16 145.567 101.36 145.34C101.72 144.967 102.073 144.607 102.42 144.26C102.78 143.9 103.14 143.547 103.5 143.2L103.56 143.14C103.666 143.033 103.773 142.933 103.88 142.84C104 142.733 104.113 142.633 104.22 142.54C104.42 142.313 104.666 142.153 104.96 142.06C105.146 141.94 105.366 141.893 105.62 141.92C105.74 141.933 105.846 141.96 105.939 142C106.046 142.04 106.146 142.093 106.24 142.16C106.306 142.227 106.373 142.287 106.44 142.34C106.506 142.38 106.56 142.433 106.6 142.5C106.706 142.593 106.773 142.733 106.8 142.92C106.8 143.067 106.773 143.2 106.72 143.32C106.68 143.387 106.64 143.453 106.6 143.52C106.56 143.587 106.513 143.653 106.46 143.72C106.393 143.8 106.333 143.873 106.28 143.94C106.226 144.007 106.166 144.073 106.1 144.14C106.046 144.207 105.986 144.267 105.92 144.32C105.866 144.373 105.813 144.433 105.76 144.5L105.5 144.76L101.76 148.58C101.96 148.78 102.166 148.993 102.38 149.22C102.606 149.433 102.82 149.647 103.02 149.86C103.219 150.06 103.406 150.253 103.58 150.44C103.753 150.613 103.899 150.76 104.02 150.88C104.38 151.253 104.726 151.627 105.06 152C105.393 152.36 105.72 152.727 106.04 153.1L106.1 153.16C106.206 153.267 106.306 153.38 106.4 153.5C106.493 153.607 106.579 153.713 106.66 153.82C106.859 154.047 107 154.293 107.08 154.56Z" fill="black"/>
<path d="M111.526 144.24L111.486 147.38H112.286C112.833 147.367 113.32 147.36 113.746 147.36C114.173 147.36 114.646 147.367 115.166 147.38H115.266C115.426 147.38 115.58 147.387 115.726 147.4C115.886 147.4 116.04 147.4 116.186 147.4C116.346 147.413 116.5 147.44 116.646 147.48C116.793 147.507 116.94 147.54 117.086 147.58C117.313 147.66 117.5 147.78 117.646 147.94C117.78 148.113 117.846 148.307 117.846 148.52C117.846 148.587 117.846 148.667 117.846 148.76C117.846 148.84 117.833 148.913 117.806 148.98C117.78 149.127 117.693 149.26 117.546 149.38C117.48 149.473 117.353 149.54 117.166 149.58C116.993 149.633 116.82 149.667 116.646 149.68C116.46 149.72 116.273 149.74 116.086 149.74H115.146L111.446 149.76L111.406 153.68L115.386 153.72H116.326C116.433 153.72 116.533 153.72 116.626 153.72C116.72 153.72 116.806 153.727 116.886 153.74C116.993 153.767 117.086 153.787 117.166 153.8C117.26 153.8 117.346 153.813 117.426 153.84C117.586 153.893 117.72 153.967 117.826 154.06C117.96 154.193 118.046 154.333 118.086 154.48C118.1 154.547 118.106 154.62 118.106 154.7C118.12 154.767 118.12 154.84 118.106 154.92C118.106 155.133 118.04 155.327 117.906 155.5C117.746 155.687 117.56 155.807 117.346 155.86C117.066 155.98 116.76 156.04 116.426 156.04C116.28 156.053 116.126 156.06 115.966 156.06C115.806 156.06 115.653 156.067 115.506 156.08H115.386C114.346 156.107 113.266 156.107 112.146 156.08C111.88 156.08 111.666 156.073 111.506 156.06C111.346 156.06 111.2 156.06 111.066 156.06C110.946 156.06 110.82 156.06 110.686 156.06C110.553 156.06 110.38 156.06 110.166 156.06C109.86 156.087 109.606 156.033 109.406 155.9C109.26 155.807 109.146 155.68 109.066 155.52C109.026 155.48 109.006 155.44 109.006 155.4C108.993 155.373 108.98 155.353 108.966 155.34C108.953 155.327 108.94 155.307 108.926 155.28C108.9 155.213 108.88 155.147 108.866 155.08C108.853 155 108.846 154.927 108.846 154.86C108.833 154.793 108.82 154.727 108.806 154.66C108.806 154.593 108.8 154.527 108.786 154.46V154.14C108.786 154.087 108.786 154.033 108.786 153.98C108.8 153.927 108.806 153.873 108.806 153.82V152.26L108.846 149.38V146.72C108.846 146.24 108.846 145.813 108.846 145.44C108.86 145.067 108.873 144.66 108.886 144.22V144.12C108.9 143.973 108.906 143.84 108.906 143.72C108.92 143.587 108.926 143.453 108.926 143.32C108.94 143.053 109.013 142.793 109.146 142.54C109.2 142.433 109.253 142.34 109.306 142.26C109.373 142.18 109.46 142.113 109.566 142.06C109.766 141.94 109.973 141.88 110.186 141.88C110.293 141.88 110.373 141.887 110.426 141.9V141.88C110.666 141.88 110.86 141.88 111.006 141.88C111.153 141.88 111.293 141.88 111.426 141.88C111.573 141.88 111.726 141.88 111.886 141.88C112.046 141.867 112.266 141.86 112.546 141.86C113.08 141.847 113.586 141.84 114.066 141.84C114.546 141.84 115.04 141.847 115.546 141.86H115.626C115.773 141.873 115.926 141.88 116.086 141.88C116.246 141.88 116.4 141.887 116.546 141.9C116.693 141.9 116.84 141.92 116.986 141.96C117.133 141.987 117.28 142.027 117.426 142.08C117.653 142.147 117.84 142.26 117.986 142.42C118.106 142.607 118.166 142.793 118.166 142.98C118.166 143.06 118.166 143.14 118.166 143.22C118.166 143.287 118.153 143.353 118.126 143.42C118.113 143.553 118.033 143.693 117.886 143.84C117.833 143.867 117.773 143.9 117.706 143.94C117.653 143.98 117.586 144.013 117.506 144.04C117.426 144.067 117.34 144.087 117.246 144.1C117.166 144.1 117.086 144.107 117.006 144.12C116.9 144.147 116.8 144.16 116.706 144.16C116.626 144.16 116.533 144.16 116.426 144.16H115.526L111.526 144.18V144.24Z" fill="black"/>
<path d="M130.412 142.46C130.559 142.633 130.632 142.813 130.632 143C130.632 143.08 130.626 143.167 130.612 143.26C130.612 143.34 130.605 143.413 130.592 143.48C130.552 143.627 130.465 143.767 130.332 143.9C130.225 143.98 130.079 144.04 129.892 144.08C129.799 144.107 129.705 144.127 129.612 144.14C129.519 144.153 129.419 144.173 129.312 144.2C129.219 144.213 129.126 144.22 129.032 144.22C128.939 144.22 128.839 144.22 128.732 144.22H127.712C127.472 144.233 127.232 144.24 126.992 144.24C126.765 144.24 126.539 144.24 126.312 144.24C126.325 144.653 126.332 145.1 126.332 145.58C126.332 146.047 126.325 146.593 126.312 147.22C126.312 147.847 126.305 148.573 126.292 149.4C126.292 150.227 126.292 151.187 126.292 152.28V153.8C126.292 153.933 126.299 154.033 126.312 154.1C126.312 154.153 126.312 154.207 126.312 154.26C126.312 154.3 126.305 154.353 126.292 154.42C126.265 154.54 126.245 154.68 126.232 154.84C126.232 154.907 126.225 154.973 126.212 155.04C126.199 155.093 126.179 155.153 126.152 155.22C126.099 155.273 126.072 155.313 126.072 155.34L126.012 155.46C125.945 155.593 125.819 155.72 125.632 155.84C125.339 155.987 125.012 156.02 124.652 155.94C124.425 155.913 124.252 155.853 124.132 155.76C124.012 155.64 123.925 155.52 123.872 155.4C123.792 155.253 123.745 155.113 123.732 154.98C123.692 154.86 123.672 154.733 123.672 154.6V144.32C123.592 144.32 123.425 144.32 123.172 144.32C122.919 144.32 122.645 144.32 122.352 144.32C122.072 144.307 121.805 144.293 121.552 144.28C121.299 144.267 121.125 144.253 121.032 144.24C120.952 144.227 120.825 144.207 120.652 144.18C120.492 144.153 120.359 144.127 120.252 144.1C119.972 144.02 119.752 143.893 119.592 143.72C119.445 143.547 119.372 143.353 119.372 143.14C119.372 143.06 119.372 142.98 119.372 142.9C119.372 142.82 119.385 142.747 119.412 142.68C119.452 142.52 119.559 142.387 119.732 142.28C119.785 142.24 119.865 142.193 119.972 142.14C120.092 142.073 120.205 142.027 120.312 142C120.472 141.947 120.672 141.907 120.912 141.88C121.019 141.867 121.125 141.86 121.232 141.86C121.339 141.86 121.452 141.86 121.572 141.86C122.039 141.86 122.479 141.86 122.892 141.86C123.319 141.86 123.765 141.853 124.232 141.84C125.005 141.827 125.772 141.827 126.532 141.84C127.305 141.84 128.072 141.853 128.832 141.88C129.005 141.893 129.172 141.913 129.332 141.94C129.492 141.967 129.652 142.013 129.812 142.08C129.932 142.12 130.045 142.173 130.152 142.24C130.259 142.293 130.345 142.367 130.412 142.46Z" fill="black"/>
<path d="M120.565 66.7042L113.808 59.9479L134.029 39.5833L140.833 46.4833L120.565 66.7042ZM45 46.7708C45 42.3229 46.7669 38.0572 49.9121 34.9121C53.0572 31.7669 57.3229 30 61.7708 30C66.2187 30 70.4845 31.7669 73.6296 34.9121C76.7747 38.0572 78.5417 42.3229 78.5417 46.7708C78.5417 51.2187 76.7747 55.4845 73.6296 58.6296C70.4845 61.7747 66.2187 63.5417 61.7708 63.5417C57.3229 63.5417 53.0572 61.7747 49.9121 58.6296C46.7669 55.4845 45 51.2187 45 46.7708ZM69.4854 124.683L55.925 111.123C55.0266 110.209 54.5232 108.979 54.5232 107.697C54.5232 106.415 55.0266 105.185 55.925 104.271L96.6063 63.6854C98.475 61.8167 101.494 61.8167 103.363 63.6854L116.875 77.2458C117.33 77.688 117.692 78.2168 117.939 78.8012C118.186 79.3855 118.313 80.0135 118.313 80.6479C118.313 81.2823 118.186 81.9103 117.939 82.4946C117.692 83.079 117.33 83.6079 116.875 84.05L76.2896 124.683C74.3729 126.552 71.3542 126.552 69.4854 124.683Z" fill="black"/>
</g>
</svg>
