<svg width="115" height="115" viewBox="0 0 115 115" fill="none" xmlns="http://www.w3.org/2000/svg">
<path id="Vector" d="M57.5 115L54.8864 51.1111L36.5909 44.7222H0V31.9444H31.3636L67.9545 0L74.75 9.74306L53.0568 28.75H67.9545L108.727 0L115 8.94444L70.5682 51.1111L67.9545 115H57.5ZM26.1364 25.5556C23.2614 25.5556 20.8011 24.3055 18.7555 21.8053C16.7098 19.3051 15.6853 16.2959 15.6818 12.7778C15.6818 9.26389 16.7064 6.25685 18.7555 3.75667C20.8045 1.25648 23.2648 0.00425926 26.1364 0C29.0114 0 31.4734 1.25222 33.5225 3.75667C35.5716 6.26111 36.5944 9.26815 36.5909 12.7778C36.5909 16.2917 35.5681 19.3008 33.5225 21.8053C31.4769 24.3097 29.0148 25.5598 26.1364 25.5556Z" fill="black"/>
</svg>
