<svg width="115" height="115" viewBox="0 0 115 115" fill="none" xmlns="http://www.w3.org/2000/svg">
<path id="Vector" d="M12.5063 93.2938C8.48125 88.1188 5.39158 82.4895 3.23725 76.406C1.08292 70.3225 0.00383333 64.0205 0 57.5C0 50.9833 1.07908 44.6833 3.23725 38.5998C5.39542 32.5163 8.48508 26.8851 12.5063 21.7063C18.0646 26.0188 22.425 31.3145 25.5875 37.5935C28.75 43.8725 30.3312 50.508 30.3312 57.5C30.3312 64.4958 28.75 71.1333 25.5875 77.4123C22.425 83.6913 18.0646 88.9851 12.5063 93.2938ZM57.5 115C50.6 115 44.0124 113.85 37.7372 111.55C31.4621 109.25 25.7351 105.896 20.5562 101.487C27.1687 96.025 32.3437 89.4853 36.0812 81.8685C39.8187 74.2517 41.6875 66.1288 41.6875 57.5C41.6875 48.875 39.8187 40.7541 36.0812 33.1372C32.3437 25.5204 27.1687 18.9788 20.5562 13.5125C25.7312 9.10417 31.4582 5.75 37.7372 3.45C44.0162 1.15 50.6038 0 57.5 0C64.4 0 70.9895 1.15 77.2685 3.45C83.5475 5.75 89.2726 9.10417 94.4437 13.5125C87.8312 18.975 82.6562 25.5166 78.9187 33.1372C75.1812 40.7579 73.3125 48.8788 73.3125 57.5C73.3125 66.125 75.1812 74.2478 78.9187 81.8685C82.6562 89.4892 87.8312 96.0288 94.4437 101.487C89.2687 105.896 83.5417 109.25 77.2627 111.55C70.9837 113.85 64.3962 115 57.5 115ZM102.494 93.2938C96.9354 88.9813 92.575 83.6874 89.4125 77.4123C86.25 71.1371 84.6687 64.4997 84.6687 57.5C84.6687 50.5042 86.25 43.8667 89.4125 37.5877C92.575 31.3087 96.9354 26.0149 102.494 21.7063C106.519 26.8813 109.61 32.5124 111.768 38.5998C113.927 44.6871 115.004 50.9872 115 57.5C115 64.0167 113.923 70.3187 111.768 76.406C109.614 82.4933 106.523 88.1226 102.494 93.2938Z" fill="black"/>
</svg>
