<svg width="115" height="115" viewBox="0 0 115 115" fill="none" xmlns="http://www.w3.org/2000/svg">
<path id="Vector" d="M6.72234 115L0 107.512L17.5261 87.9884L12.2443 72.2093C11.6841 70.6047 11.564 68.7557 11.8841 66.6626C12.2042 64.5694 13.1246 62.6741 14.6451 60.9767L30.4906 43.3256C31.4509 42.2558 32.4913 41.4535 33.6117 40.9186C34.7321 40.3837 35.9725 40.1163 37.333 40.1163C38.6935 40.1163 39.9339 40.3837 41.0543 40.9186C42.1747 41.4535 43.215 42.2558 44.1754 43.3256L53.7787 53.7558C55.9395 56.1628 58.5804 58.0581 61.7015 59.4416C64.8225 60.8252 68.1837 61.5152 71.785 61.5116V72.2093C66.9833 72.2093 62.5017 71.3624 58.3403 69.6686C54.1788 67.9748 50.5776 65.4341 47.5365 62.0465L44.1754 58.3023L32.8914 70.8721L42.975 82.3721V115H33.3716V86.9186L27.1294 80.5V92.2674L6.72234 115ZM71.785 115V77.5581L81.8685 66.8605L78.9875 48.1395C77.7871 49.7442 76.4666 51.1705 75.0261 52.4186C73.5856 53.6667 72.0251 54.8256 70.3445 55.8954C67.7036 55.7171 65.2035 55.093 62.8443 54.0233C60.485 52.9535 58.5036 51.5271 56.8998 49.7442C60.501 49.031 63.6829 47.6706 66.4455 45.663C69.2081 43.6554 71.4681 41.0933 73.2255 37.9767L78.0271 29.4186C79.3876 27.0116 81.2683 25.3838 83.6691 24.5351C86.0699 23.6864 88.4308 23.7988 90.7516 24.8721L115 36.3721V61.5116H105.397V43.3256L96.7536 39.5814L110.198 115H100.115L91.4718 74.8837L81.3883 85.5814V115H71.785ZM54.9791 42.7907C52.3382 42.7907 50.0782 41.7441 48.1992 39.6509C46.3201 37.5578 45.379 35.0385 45.3758 32.093C45.3758 29.1512 46.3169 26.6336 48.1992 24.5405C50.0814 22.4473 52.3414 21.3989 54.9791 21.3953C57.62 21.3953 59.8816 22.4437 61.7639 24.5405C63.6461 26.6372 64.5857 29.1547 64.5825 32.093C64.5825 35.0349 63.6429 37.5542 61.7639 39.6509C59.8848 41.7477 57.6232 42.7943 54.9791 42.7907ZM78.9875 21.3953C76.3466 21.3953 74.0866 20.3488 72.2075 18.2556C70.3285 16.1624 69.3873 13.6431 69.3841 10.6977C69.3841 7.75581 70.3253 5.2383 72.2075 3.14512C74.0898 1.05194 76.3498 0.00356589 78.9875 0C81.6284 0 83.89 1.04837 85.7722 3.14512C87.6545 5.24186 88.594 7.75938 88.5908 10.6977C88.5908 13.6395 87.6513 16.1588 85.7722 18.2556C83.8932 20.3523 81.6316 21.3989 78.9875 21.3953Z" fill="black"/>
</svg>
